# xmcd
#
# Track frame offsets:
#	150
#	16990
#	35395
#	52270
#	67660
#	83255
#	98225
#	113100
#	126810
#	138847
#	157909
#	169426
#	180148
#	195395
#
# Disc length: 2868 seconds
#
# Revision: 1
# Processed by: cddbd v1.5.2PL0 Copyright (c) Steve Scherf et al.
# Submitted via: audiograbber 1.83.01
#
DISCID=a30b320e
DTITLE=Ronnie Brackett - Loving You With Country Songs
DYEAR=1900
DGENRE=
TTITLE0=It´s Been A While
TTITLE1=Little Things
TTITLE2=Cloud Nine
TTITLE3=Tell Me
TTITLE4=Loving You With Country Songs
TTITLE5=Make A Last
TTITLE6=You´re Real
TTITLE7=In My Dreams
TTITLE8=Where Roses Bloom
TTITLE9=We´re Still A Family
TTITLE10=More Than A Friend
TTITLE11=The Love Bug Itch 
TTITLE12=The Love Of My Life
TTITLE13=We´re Still Family (instrumental)
EXTD=
EXTT0=
EXTT1=
EXTT2=
EXTT3=
EXTT4=
EXTT5=
EXTT6=
EXTT7=
EXTT8=
EXTT9=
EXTT10=
EXTT11=
EXTT12=
EXTT13=
PLAYORDER=
